<svg width="300" height="300" viewBox="0 0 300 300" fill="none" xmlns="http://www.w3.org/2000/svg">
<path fill-rule="evenodd" clip-rule="evenodd" d="M160.318 34.5135C154.237 35.2734 148.157 35.2734 142.076 34.5135C148.15 33.8288 154.231 33.8288 160.318 34.5135Z" fill="#004730"/>
<path fill-rule="evenodd" clip-rule="evenodd" d="M142.076 34.5135C148.156 35.2734 154.237 35.2734 160.318 34.5135C202.135 39.7826 230.163 62.2054 244.402 101.781C255.134 142.377 245.349 177.056 215.044 205.817C190.733 225.862 162.99 233.083 131.815 227.48C125.945 226.157 120.244 224.352 114.713 222.064C109.029 225.286 103.138 228.231 97.0407 230.9C84.2731 236.216 71.7317 235.837 59.4166 229.76C54.0911 226.333 52.0959 221.488 53.431 215.223C54.0666 212.812 55.0163 210.532 56.2813 208.382C62.4277 201.358 64.3277 193.377 61.9819 184.44C44.8966 146.477 47.7469 110.184 70.5328 75.558C88.4841 51.8023 112.332 38.1208 142.076 34.5135Z" fill="#004730"/>
<path fill-rule="evenodd" clip-rule="evenodd" d="M144.926 42.4943C182.117 41.3707 210.336 56.5725 229.58 88.0992C244.517 117.48 244.327 146.743 229.01 175.889C207.06 210.66 175.611 225.197 134.665 219.499C127.356 217.885 120.23 215.7 113.288 212.943C105.162 218.951 96.1367 223.227 86.2096 225.769C79.4481 227.164 72.7972 226.783 66.2575 224.629C63.2116 223.392 61.3116 221.206 60.5568 218.073C63.4875 212.213 66.4325 206.322 69.3928 200.401C70.6441 196.298 71.0238 192.117 70.5329 187.86C67.0726 177.1 63.8427 166.268 60.8419 155.367C54.399 112.713 68.9356 79.3642 104.452 55.3207C117.096 48.1265 130.587 43.851 144.926 42.4943Z" fill="#FBFBFB"/>
<path fill-rule="evenodd" clip-rule="evenodd" d="M195.092 85.249C200.175 84.5684 204.545 85.9936 208.203 89.5245C218.179 101.027 221.504 114.233 218.179 129.144C214.469 139.943 207.723 142.508 197.942 136.84C194.674 133.948 192.299 130.432 190.816 126.294C186.339 116.427 185.009 106.166 186.826 95.5102C188.243 90.9634 190.998 87.543 195.092 85.249Z" fill="#004730"/>
<path fill-rule="evenodd" clip-rule="evenodd" d="M203.642 100.641C207.878 100.914 210.253 103.195 210.768 107.481C211.148 109.192 211.148 110.902 210.768 112.612C209.472 116.041 207.287 116.801 204.212 114.892C200.004 110.157 199.814 105.406 203.642 100.641Z" fill="#FBFBFB"/>
<path fill-rule="evenodd" clip-rule="evenodd" d="M143.786 85.8191C151.184 85.2895 157.169 87.9499 161.743 93.7999C172.488 108.604 173.818 124.186 165.733 140.545C161.465 145.666 156.05 147.472 149.487 145.961C144.36 144.063 140.465 140.738 137.8 135.985C131.27 124.733 129.369 112.762 132.1 100.071C134.085 93.6323 137.98 88.8814 143.786 85.8191Z" fill="#004730"/>
<path fill-rule="evenodd" clip-rule="evenodd" d="M152.907 104.631C157.035 103.988 159.6 105.698 160.603 109.762C161.698 112.603 161.698 115.453 160.603 118.313C159.144 120.429 157.149 121.093 154.617 120.308C151.65 118.178 150.129 115.233 150.056 111.472C149.982 108.687 150.933 106.406 152.907 104.631Z" fill="#FBFBFB"/>
<path fill-rule="evenodd" clip-rule="evenodd" d="M125.544 248.287C143.996 248.027 162.428 248.502 180.84 249.712C188.513 250.357 196.115 251.497 203.642 253.132C205.857 253.554 207.947 254.314 209.913 255.413C211.532 257.213 211.152 258.543 208.773 259.403C196.831 262.631 184.67 264.531 172.289 265.104C148.125 266.533 123.992 266.153 99.891 263.963C92.5446 263.292 85.3242 261.962 78.2286 259.973C76.8599 259.52 75.6246 258.855 74.5232 257.978C74.1179 256.913 74.4029 256.058 75.3783 255.413C81.2277 253.026 87.3086 251.506 93.6203 250.852C104.324 249.677 114.966 248.822 125.544 248.287Z" fill="#004730"/>
</svg>
