<svg width="300" height="300" viewBox="0 0 300 300" fill="none" xmlns="http://www.w3.org/2000/svg">
<path fill-rule="evenodd" clip-rule="evenodd" d="M89.1928 59.5535C89.1928 61.354 89.1928 63.155 89.1928 64.9554C99.7303 65.1337 110.174 64.9538 120.524 64.4153C119.709 58.0389 122.41 54.2575 128.627 53.0713C135.008 54.1138 137.889 57.8952 137.27 64.4153C140.516 64.3256 143.757 64.4158 146.993 64.6853C152.834 65.575 156.255 68.9058 157.257 74.6789C157.257 79.3607 157.257 84.042 157.257 88.7238C155.816 88.7238 154.376 88.7238 152.935 88.7238C152.935 88.1836 152.935 87.6434 152.935 87.1032C121.335 86.5636 89.6444 86.3837 57.8618 86.563C57.6825 105.742 57.8629 124.828 58.402 143.823C59.1626 147.015 61.143 149.086 64.3441 150.035C73.8877 150.215 83.4306 150.396 92.9742 150.576C93.5538 152.257 93.5538 153.967 92.9742 155.707C83.0693 155.798 73.1654 155.707 63.2637 155.437C58.3626 153.958 55.0312 150.806 53.2702 145.984C52.9099 121.495 52.9099 97.0065 53.2702 72.5181C55.0804 67.9146 58.4118 65.2137 63.2637 64.4153C66.6848 64.4153 70.1063 64.4153 73.5273 64.4153C73.5273 62.9746 73.5273 61.5344 73.5273 60.0937C75.3386 53.2474 79.4797 51.3568 85.9517 54.4217C87.6517 55.7528 88.7321 57.463 89.1928 59.5535Z" fill="#D9D9D9"/>
<path fill-rule="evenodd" clip-rule="evenodd" d="M80.0096 57.933C81.6329 57.7995 82.9834 58.3397 84.061 59.5535C84.4213 64.5951 84.4213 69.6373 84.061 74.6789C81.971 76.307 80.1706 76.1271 78.6591 74.1387C78.2988 69.0971 78.2988 64.0549 78.6591 59.0133C79.1966 58.7076 79.6466 58.3473 80.0096 57.933Z" fill="#F9F9F9"/>
<path fill-rule="evenodd" clip-rule="evenodd" d="M127.546 57.933C129.585 57.5668 131.115 58.2874 132.138 60.0938C132.498 64.4153 132.498 68.7368 132.138 73.0583C131.355 75.607 129.645 76.4172 127.006 75.4892C126.357 75.0014 125.907 74.3715 125.656 73.5985C125.295 69.0971 125.295 64.5952 125.656 60.0938C126.399 59.4429 127.029 58.7228 127.546 57.933Z" fill="#EFEFEF"/>
<path fill-rule="evenodd" clip-rule="evenodd" d="M73.5273 60.0938C73.5273 61.5344 73.5273 62.9746 73.5273 64.4153C70.1063 64.4153 66.6847 64.4153 63.2637 64.4153C66.4022 63.8805 69.6433 63.7006 72.9871 63.8751C72.8239 62.4927 73.0044 61.2319 73.5273 60.0938Z" fill="#D9D9D9"/>
<path fill-rule="evenodd" clip-rule="evenodd" d="M89.1929 59.5536C89.7206 61.0591 89.9005 62.6797 89.7331 64.4153C99.9967 64.4153 110.26 64.4153 120.524 64.4153C110.174 64.9539 99.7304 65.1337 89.1929 64.9555C89.1929 63.155 89.1929 61.354 89.1929 59.5536Z" fill="#D9D9D9"/>
<path fill-rule="evenodd" clip-rule="evenodd" d="M157.257 74.6788C157.793 79.4422 157.974 84.3039 157.797 89.264C156.061 89.4314 154.441 89.2515 152.935 88.7238C154.376 88.7238 155.816 88.7238 157.257 88.7238C157.257 84.0419 157.257 79.3607 157.257 74.6788Z" fill="#D9D9D9"/>
<path fill-rule="evenodd" clip-rule="evenodd" d="M160.498 95.206C188.442 94.5141 210.68 105.318 227.211 127.617C242.673 152.085 242.673 176.573 227.211 201.083C226.851 202.884 226.851 204.685 227.211 206.485C232.961 217.765 229.629 224.698 217.218 227.282C214.877 227.643 212.536 227.643 210.195 227.282C206.656 226.233 203.234 224.882 199.932 223.231C173.443 235.694 148.055 233.804 123.765 217.559C105.002 202.616 96.629 183.08 98.6461 158.948C102.64 135.003 114.794 116.546 135.109 103.579C143.06 98.9776 151.523 96.1865 160.498 95.206Z" fill="#D9D9D9"/>
<path fill-rule="evenodd" clip-rule="evenodd" d="M71.3666 95.7463C75.8718 95.6566 80.3732 95.7463 84.8713 96.0164C85.3213 96.4663 85.7718 96.9168 86.2218 97.3668C87.091 102.173 87.2708 107.035 86.762 111.952C86.5108 112.725 86.0603 113.355 85.4115 113.843C80.7297 114.203 76.0484 114.203 71.3666 113.843C70.5936 113.591 69.9637 113.141 69.4759 112.492C69.1156 107.451 69.1156 102.408 69.4759 97.3668C70.0944 96.7532 70.7248 96.213 71.3666 95.7463Z" fill="#D9D9D9"/>
<path fill-rule="evenodd" clip-rule="evenodd" d="M98.9163 95.7463C103.242 95.6566 107.563 95.7463 111.881 96.0164C112.654 96.2675 113.284 96.7181 113.771 97.3668C114.372 99.9181 114.642 102.529 114.582 105.2C114.492 107.451 114.402 109.701 114.312 111.952C114.11 112.447 113.84 112.897 113.501 113.302C108.514 114.173 103.473 114.353 98.3761 113.843C97.9261 113.393 97.4756 112.942 97.0256 112.492C96.6653 107.63 96.6653 102.769 97.0256 97.907C97.3983 96.9077 98.0282 96.1871 98.9163 95.7463Z" fill="#D9D9D9"/>
<path fill-rule="evenodd" clip-rule="evenodd" d="M125.926 95.7463C130.071 95.6566 134.213 95.7463 138.35 96.0164C139.112 96.2151 139.652 96.6651 139.971 97.3668C134.918 98.5412 130.597 100.972 127.006 104.659C125.981 105.259 124.991 105.349 124.035 104.929C123.675 102.408 123.675 99.8879 124.035 97.3668C124.855 97.0087 125.486 96.4685 125.926 95.7463Z" fill="#D9D9D9"/>
<path fill-rule="evenodd" clip-rule="evenodd" d="M159.418 100.068C182.733 98.8621 202.27 106.785 218.028 123.836C233.69 142.548 237.472 163.436 229.372 186.498C227.486 190.632 225.325 194.594 222.89 198.382C222.124 201.044 221.944 203.745 222.35 206.485C223.017 209.746 224.007 212.897 225.321 215.939C224.004 219.757 221.303 221.918 217.218 222.421C215.057 222.781 212.896 222.781 210.736 222.421C207.107 221.1 203.595 219.57 200.202 217.829C175.75 230.272 151.891 229.282 128.627 214.858C107.487 199.165 99.6542 178.367 105.128 152.466C111.307 130.268 124.721 114.152 145.373 104.119C150.021 102.419 154.703 101.069 159.418 100.068Z" fill="#FDFDFD"/>
<path fill-rule="evenodd" clip-rule="evenodd" d="M152.935 87.1032C121.424 87.1032 89.9129 87.1032 58.4021 87.1032C58.4021 106.01 58.4021 124.917 58.4021 143.823C57.8629 124.828 57.6825 105.742 57.8619 86.5631C89.6445 86.3837 121.335 86.5636 152.935 87.1032Z" fill="#D9D9D9"/>
<path fill-rule="evenodd" clip-rule="evenodd" d="M70.8264 122.216C75.5115 122.126 80.1933 122.216 84.8714 122.486C85.4115 122.936 85.9517 123.386 86.4919 123.836C87.1061 128.491 87.1963 133.173 86.762 137.881C86.5108 138.654 86.0603 139.284 85.4115 139.772C80.2376 140.214 75.1058 140.123 70.0161 139.502C69.1448 134.334 68.9644 129.112 69.4759 123.836C70.0404 123.365 70.4904 122.824 70.8264 122.216Z" fill="#D9D9D9"/>
<path fill-rule="evenodd" clip-rule="evenodd" d="M98.3761 122.216C101.263 122.126 104.144 122.216 107.019 122.486C103.061 127.791 100.18 133.643 98.3761 140.042C97.8478 139.784 97.3978 139.424 97.0256 138.961C96.6653 133.92 96.6653 128.878 97.0256 123.836C97.5901 123.365 98.0401 122.824 98.3761 122.216Z" fill="#D9D9D9"/>
<path fill-rule="evenodd" clip-rule="evenodd" d="M133.488 131.939C140.496 132.552 144.728 136.333 146.183 143.283C147.473 154.718 144.142 164.532 136.189 172.723C130.324 175.872 125.733 174.521 122.414 168.672C117.968 155.879 120.219 144.444 129.167 134.37C130.621 133.503 132.061 132.693 133.488 131.939Z" fill="#D9D9D9"/>
<path fill-rule="evenodd" clip-rule="evenodd" d="M174.003 131.939C181.278 132.276 185.69 136.057 187.237 143.283C188.788 154.004 186.447 163.728 180.215 172.453C172.681 179.095 166.559 178.014 161.848 169.212C157.665 156.459 159.915 145.025 168.601 134.91C170.365 133.759 172.166 132.769 174.003 131.939Z" fill="#D9D9D9"/>
<path fill-rule="evenodd" clip-rule="evenodd" d="M176.163 141.122C179.683 141.312 181.484 143.202 181.565 146.794C181.241 149.539 180.341 152.06 178.864 154.357C174.462 155.908 172.301 154.287 172.382 149.495C172.28 146.013 173.541 143.222 176.163 141.122Z" fill="#F5F5F5"/>
<path fill-rule="evenodd" clip-rule="evenodd" d="M135.649 141.122C139.625 140.506 141.425 142.217 141.051 146.254C141.324 150.306 139.614 153.097 135.919 154.627C133.206 153.635 132.036 151.654 132.408 148.685C132.605 145.773 133.685 143.252 135.649 141.122Z" fill="#F5F5F5"/>
<path fill-rule="evenodd" clip-rule="evenodd" d="M87.032 195.681C89.9993 194.967 91.3498 196.048 91.0835 198.923C85.3947 201.842 79.5423 204.452 73.5273 206.755C70.5654 207.03 69.6649 205.769 70.8263 202.974C76.3411 200.665 81.743 198.234 87.032 195.681Z" fill="#D9D9D9"/>
<path fill-rule="evenodd" clip-rule="evenodd" d="M95.1349 207.566C97.8364 207.118 99.007 208.198 98.6461 210.807C95.3434 215.73 91.8322 220.502 88.1124 225.122C85.4126 225.84 84.2425 224.849 84.6012 222.151C88.382 217.464 91.8932 212.602 95.1349 207.566Z" fill="#D9D9D9"/>
<path fill-rule="evenodd" clip-rule="evenodd" d="M227.481 80.621C230.223 80.4481 231.213 81.7089 230.452 84.4023C227.189 89.58 223.857 94.7118 220.459 99.7977C217.926 100.074 216.935 98.9032 217.488 96.2865C220.825 91.0493 224.156 85.8273 227.481 80.621Z" fill="#D9D9D9"/>
<path fill-rule="evenodd" clip-rule="evenodd" d="M142.131 236.196C160.505 236.036 178.871 236.306 197.231 237.006C202.897 237.435 208.479 238.335 213.977 239.707C216.92 241.598 216.559 242.859 212.896 243.488C183.582 247.983 154.232 248.163 124.845 244.028C118.367 242.217 118.367 240.417 124.845 238.626C130.662 237.63 136.424 236.82 142.131 236.196Z" fill="#D9D9D9"/>
<path fill-rule="evenodd" clip-rule="evenodd" d="M243.687 96.8267C247.682 96.8888 248.403 98.4191 245.848 101.418C241.438 104.434 236.936 107.315 232.343 110.061C229.912 110.511 228.922 109.521 229.372 107.09C234.228 103.724 238.999 100.302 243.687 96.8267Z" fill="#D9D9D9"/>
</svg>
