<svg width="300" height="300" viewBox="0 0 300 300" fill="none" xmlns="http://www.w3.org/2000/svg">
<path fill-rule="evenodd" clip-rule="evenodd" d="M230.236 27.1673C233.672 26.4984 235.105 27.8355 234.534 31.1791C232.906 35.6763 230.9 39.9747 228.516 44.0742C225.077 44.6433 223.835 43.2105 224.791 39.7758C226.151 35.3405 227.966 31.1378 230.236 27.1673Z" fill="#D9D9D9"/>
<path fill-rule="evenodd" clip-rule="evenodd" d="M256.026 35.764C259.88 36.0907 260.931 38.0009 259.178 41.4952C254.519 45.1976 250.03 49.1142 245.71 53.2441C241.516 54.9692 240.084 53.7278 241.412 49.5189C246.05 44.5906 250.922 40.0057 256.026 35.764Z" fill="#D9D9D9"/>
<path fill-rule="evenodd" clip-rule="evenodd" d="M61.7392 124.597C62.1669 131.574 62.549 138.643 62.8854 145.803C62.8792 146.688 62.6882 147.452 62.3123 148.095C61.1858 140.279 60.9948 132.447 61.7392 124.597Z" fill="#D9D9D9"/>
<path fill-rule="evenodd" clip-rule="evenodd" d="M62.3121 148.095C62.688 147.452 62.8791 146.688 62.8852 145.803C62.5488 138.643 62.1667 131.574 61.739 124.597C65.7224 91.4826 81.7697 66.1697 109.881 48.6592C142.499 31.5281 175.167 31.5281 207.884 48.6592C241.718 69.8032 257.67 100.465 255.739 140.645C252 179.572 232.609 207.559 197.568 224.606C180.206 231.951 162.344 233.574 143.981 229.478C134.947 236.666 124.631 240.486 113.033 240.94C104.741 241.282 98.0546 238.225 92.9739 231.77C92.1389 229.34 91.9475 226.856 92.4008 224.32C93.4359 221.485 94.7729 218.811 96.4126 216.296C97.0689 214.616 97.5463 212.896 97.8454 211.138C86.1779 211.782 78.4409 206.624 74.6342 195.664C74.3602 191.253 74.3602 186.859 74.6342 182.482C68.3124 171.828 64.205 160.366 62.3121 148.095Z" fill="#D9D9D9"/>
<path fill-rule="evenodd" clip-rule="evenodd" d="M69.7628 122.878C69.7628 124.406 69.7628 125.934 69.7628 127.463C69.2881 131.181 69.0015 135.002 68.9031 138.925C68.8076 136.728 68.7121 134.531 68.6165 132.334C68.4958 128.709 68.8779 125.557 69.7628 122.878Z" fill="#D9D9D9"/>
<path fill-rule="evenodd" clip-rule="evenodd" d="M69.7627 127.463C69.7627 125.934 69.7627 124.406 69.7627 122.878C75.869 86.1032 96.5009 61.3634 131.659 48.6591C167.611 38.5654 198.655 46.6847 224.791 73.0166C244.195 96.37 251.263 123.116 245.996 153.253C238.616 182.602 221.327 203.904 194.129 217.156C176.991 224.519 159.511 225.57 141.689 220.308C132.174 230.102 120.616 234.21 107.015 232.63C104.4 232.114 102.203 230.872 100.425 228.905C100.329 228.427 100.234 227.949 100.138 227.472C101.165 223.6 102.598 219.875 104.436 216.296C105.027 213.847 105.409 211.364 105.583 208.846C119.599 200.614 123.993 188.769 118.764 173.312C120.495 170.225 122.501 167.359 124.782 164.715C144.323 170.935 161.039 166.541 174.93 151.534C184.93 137.571 187.031 122.48 181.234 106.257C171.915 86.1668 156.154 77.0926 133.952 79.0344C113.673 83.4565 101.16 95.7786 96.4127 116C94.2635 132.225 99.135 145.884 111.027 156.978C109.308 159.462 107.588 161.946 105.869 164.429C95.0968 162.797 86.2135 166.141 79.2192 174.458C71.8496 159.676 68.6975 144.011 69.7627 127.463Z" fill="#FBFBFB"/>
<path fill-rule="evenodd" clip-rule="evenodd" d="M199.287 88.4909C203.76 87.8495 207.772 88.9006 211.323 91.643C221.041 101.511 224.384 113.26 221.352 126.89C218.245 137.758 211.655 140.719 201.58 135.773C191.292 125.729 187.567 113.598 190.404 99.3801C191.757 94.3521 194.718 90.7226 199.287 88.4909Z" fill="#D9D9D9"/>
<path fill-rule="evenodd" clip-rule="evenodd" d="M201.007 102.246C204.343 102.037 206.54 103.566 207.598 106.831C208.281 109.497 207.804 111.885 206.165 113.995C201.312 114.493 199.02 112.2 199.287 107.117C199.145 105.213 199.718 103.589 201.007 102.246Z" fill="#FBFBFB"/>
<path fill-rule="evenodd" clip-rule="evenodd" d="M135.671 87.9177C153.291 86.5497 165.804 93.8093 173.211 109.696C177.524 122.595 175.804 134.631 168.052 145.803C157.471 157.545 144.576 161.27 129.367 156.978C110.959 147.959 103.604 133.345 107.302 113.135C112.21 99.5314 121.666 91.1254 135.671 87.9177Z" fill="#FBFBFB"/>
<path fill-rule="evenodd" clip-rule="evenodd" d="M146.561 97.6608C150.557 97.1083 154.187 97.968 157.45 100.24C168.449 110.527 171.601 122.849 166.906 137.206C162.01 147.371 154.846 149.377 145.414 143.224C136.645 134.098 133.684 123.305 136.531 110.842C137.962 104.894 141.305 100.501 146.561 97.6608Z" fill="#D9D9D9"/>
<path fill-rule="evenodd" clip-rule="evenodd" d="M152.865 111.416C156.5 110.989 158.888 112.517 160.029 116C160.411 118.484 160.411 120.968 160.029 123.451C159.762 124.271 159.284 124.939 158.596 125.457C155.224 126.558 152.837 125.508 151.432 122.305C149.879 118.317 150.357 114.687 152.865 111.416Z" fill="#FBFBFB"/>
<path fill-rule="evenodd" clip-rule="evenodd" d="M96.1262 172.166C109.703 171.508 115.147 177.812 112.46 191.079C108.254 200.489 101.091 204.214 90.9681 202.255C83.3691 199.176 80.408 193.54 82.0848 185.348C84.6736 178.65 89.3536 174.256 96.1262 172.166Z" fill="#FBFBFB"/>
<path fill-rule="evenodd" clip-rule="evenodd" d="M47.4111 182.482C50.5633 182.099 51.805 183.436 51.1364 186.494C48.111 188.585 44.7678 189.636 41.1068 189.646C40.0203 188.61 39.7337 187.368 40.2472 185.921C42.5409 184.493 44.9289 183.346 47.4111 182.482Z" fill="#D9D9D9"/>
<path fill-rule="evenodd" clip-rule="evenodd" d="M58.8736 203.688C62.3999 203.678 64.0237 205.398 63.7451 208.846C57.7273 213.335 51.7096 217.825 45.6919 222.314C41.213 223.759 39.3981 222.136 40.2472 217.442C46.3418 212.636 52.5506 208.051 58.8736 203.688Z" fill="#D9D9D9"/>
<path fill-rule="evenodd" clip-rule="evenodd" d="M74.3475 214.577C76.8352 214.015 78.1724 214.97 78.3593 217.442C77.6799 220.915 75.7695 223.399 72.6282 224.893C71.0998 224.511 70.1447 223.556 69.7626 222.027C70.8574 219.262 72.3857 216.779 74.3475 214.577Z" fill="#D9D9D9"/>
<path fill-rule="evenodd" clip-rule="evenodd" d="M140.256 255.841C160.927 255.417 181.559 256.085 202.153 257.847C209.916 258.299 217.366 260.019 224.504 263.005C224.996 263.4 225.377 263.878 225.651 264.438C224.967 265.6 224.012 266.459 222.785 267.017C212.864 269.903 202.739 271.622 192.41 272.175C167.365 274.229 142.338 274.038 117.331 271.602C110.777 270.775 104.282 269.629 97.8454 268.163C90.4969 266.212 90.3061 263.919 97.2723 261.286C100.644 260.23 104.083 259.465 107.588 258.993C118.524 257.522 129.413 256.471 140.256 255.841Z" fill="#D9D9D9"/>
</svg>
