<svg width="300" height="300" viewBox="0 0 300 300" fill="none" xmlns="http://www.w3.org/2000/svg">
<path fill-rule="evenodd" clip-rule="evenodd" d="M164.343 30C174.573 30.1829 177.204 34.678 172.237 43.4861C166.864 46.4879 162.807 45.2821 160.067 39.8679C159.213 35.5747 160.638 32.2854 164.343 30Z" fill="#D9D9D9"/>
<path fill-rule="evenodd" clip-rule="evenodd" d="M138.028 47.1043C143.7 46.1991 146.989 48.5016 147.896 54.0118C147.003 59.6207 143.713 61.8134 138.028 60.5904C131.934 56.0703 131.934 51.5745 138.028 47.1043Z" fill="#D9D9D9"/>
<path fill-rule="evenodd" clip-rule="evenodd" d="M57.1115 97.1017C58.445 96.9951 59.7607 97.105 61.0586 97.4306C64.8959 100.83 68.7339 104.228 72.5712 107.627C73.2198 110.704 72.0133 112.129 68.953 111.904C64.8959 108.285 60.8396 104.667 56.7826 101.049C56.3365 99.6687 56.4464 98.3529 57.1115 97.1017Z" fill="#D9D9D9"/>
<path fill-rule="evenodd" clip-rule="evenodd" d="M151.843 74.7344C183.936 72.3043 210.798 82.8301 232.431 106.312C252.283 132.212 257.765 160.938 248.878 192.491C246.342 200.757 243.162 208.761 239.339 216.503C241.339 221.758 242.545 227.13 242.957 232.621C241.226 238.716 237.17 242.334 230.786 243.475C227.716 243.914 224.647 243.914 221.576 243.475C217.17 242.091 212.894 240.447 208.748 238.541C172.417 254.351 137.441 251.83 103.82 230.976C81.2905 213.87 70.3266 191.065 70.9266 162.559C72.3107 124.237 90.292 97.0458 124.871 80.9841C133.69 77.754 142.681 75.6706 151.843 74.7344Z" fill="#D9D9D9"/>
<path fill-rule="evenodd" clip-rule="evenodd" d="M149.87 80.6552C171.905 78.6218 192.299 83.336 211.051 94.7992C237.578 114.473 249.528 140.897 246.904 174.071C245.176 187.999 241.01 201.156 234.405 213.543C233.966 215.516 233.966 217.49 234.405 219.464C236.545 224.075 237.422 228.899 237.036 233.936C230.923 239.099 224.235 239.867 216.971 236.239C214.224 234.802 211.483 233.377 208.748 231.963C178.768 246.452 148.616 246.781 118.292 232.95C90.9268 218.811 76.8927 196.225 76.1895 165.19C76.2105 136.204 87.6132 112.959 110.398 95.457C122.411 87.3246 135.568 82.3906 149.87 80.6552Z" fill="#FDFDFD"/>
<path fill-rule="evenodd" clip-rule="evenodd" d="M118.95 114.864C127.888 115.136 133.041 119.741 134.41 128.679C135.788 140.655 133.157 151.619 126.516 161.572C117.285 170.441 109.61 169.345 103.491 158.283C99.429 142.842 102.828 129.356 113.687 117.824C115.397 116.643 117.152 115.657 118.95 114.864Z" fill="#D9D9D9"/>
<path fill-rule="evenodd" clip-rule="evenodd" d="M171.579 115.522C180.929 114.438 186.959 118.385 189.67 127.363C192.226 140.321 190.033 152.382 183.092 163.545C178.209 169.851 171.959 171.934 164.343 169.795C159.55 166.532 156.59 162.037 155.462 156.309C152.021 141.222 155.858 128.394 166.974 117.824C168.569 117.026 170.105 116.259 171.579 115.522Z" fill="#D9D9D9"/>
<path fill-rule="evenodd" clip-rule="evenodd" d="M47.2436 117.495C53.6091 118.895 59.8587 120.648 65.9926 122.758C66.9255 125.352 66.0479 126.886 63.3612 127.363C57.5516 125.865 51.8506 124.11 46.2568 122.1C45.7088 120.343 46.0378 118.808 47.2436 117.495Z" fill="#D9D9D9"/>
<path fill-rule="evenodd" clip-rule="evenodd" d="M122.24 124.074C126.808 123.817 129 126.01 128.818 130.653C128.785 133.495 128.017 136.127 126.516 138.547C124.625 141.403 122.322 141.842 119.608 139.863C117.188 133.979 118.065 128.716 122.24 124.074Z" fill="#F7F7F7"/>
<path fill-rule="evenodd" clip-rule="evenodd" d="M176.184 125.39C180.593 125.082 182.786 127.166 182.763 131.639C182.574 135.964 180.819 139.473 177.5 142.165C172.817 143.17 170.625 141.197 170.921 136.244C171.109 131.804 172.863 128.186 176.184 125.39Z" fill="#F5F5F5"/>
<path fill-rule="evenodd" clip-rule="evenodd" d="M191.973 47.1044C200.641 47.1162 203.163 51.0634 199.538 58.9458C198.944 59.7359 198.177 60.2846 197.236 60.5905C189.6 62.3845 186.421 59.4241 187.697 51.7094C188.811 49.8292 190.237 48.2944 191.973 47.1044Z" fill="#D9D9D9"/>
<path fill-rule="evenodd" clip-rule="evenodd" d="M138.686 254.988C160.626 254.743 182.555 255.072 204.472 255.975C213.356 256.555 222.128 257.871 230.786 259.922C234.187 261.545 234.187 263.08 230.786 264.527C220.474 267.429 209.949 268.965 199.209 269.132C168.884 270.962 138.623 270.304 108.425 267.158C105.354 266.501 102.285 265.843 99.2145 265.185C93.9516 263.43 93.9516 261.677 99.2145 259.922C112.354 257.402 125.511 255.758 138.686 254.988Z" fill="#D9D9D9"/>
</svg>
