<svg width="300" height="300" viewBox="0 0 300 300" fill="none" xmlns="http://www.w3.org/2000/svg">
<path fill-rule="evenodd" clip-rule="evenodd" d="M114.371 45.4983C149.595 42.3968 179.023 53.7741 202.655 79.6307C215.674 96.3647 222.457 115.4 223.004 136.737C224.198 133.054 225.292 129.335 226.286 125.578C227.022 124.184 228.007 122.981 229.239 121.968C239.555 119.347 245.572 123.395 247.29 134.111C248.646 150.982 242.848 164.876 229.896 175.792C224.566 180.197 218.44 182.823 211.517 183.669C194.634 211.016 170.128 226.77 138.001 230.929C122.174 232.444 106.64 231.022 91.3969 226.663C83.7945 230.839 75.6986 233.793 67.1104 235.524C60.0167 236.25 53.015 235.812 46.1058 234.211C39.3121 232.123 35.1552 227.638 33.6344 220.755C35.1231 216.025 36.9826 211.43 39.2137 206.971C40.2081 202.201 40.4267 197.387 39.8701 192.53C36.5927 182.909 33.3108 173.282 30.0242 163.649C20.429 120.433 33.6665 86.1913 69.7359 60.9235C83.6134 52.6884 98.4912 47.5462 114.371 45.4983Z" fill="#D9D9D9"/>
<path fill-rule="evenodd" clip-rule="evenodd" d="M115.027 52.7186C146.636 49.9401 173.439 59.786 195.435 82.2563C219.107 112.975 222.389 145.794 205.281 180.715C186.854 209.792 160.27 224.451 125.529 224.693C113.636 224.776 102.04 223.026 90.7406 219.442C89.8656 219.552 88.99 219.661 88.115 219.77C77.3686 226.942 65.5535 230.006 52.6698 228.96C48.568 228.325 44.9579 226.684 41.8394 224.037C41.2335 223.03 40.9053 221.936 40.8548 220.755C42.6572 216.925 44.2982 212.987 45.7777 208.94C47.1857 203.986 47.6228 198.954 47.0905 193.843C43.9877 183.003 40.4865 172.281 36.5882 161.68C27.7118 121.587 40.0743 89.9702 73.6744 66.831C86.6027 59.4223 100.387 54.718 115.027 52.7186Z" fill="#FEFEFE"/>
<path fill-rule="evenodd" clip-rule="evenodd" d="M236.46 82.9126C237.79 82.8063 239.103 82.9159 240.398 83.2408C241.313 83.8683 241.751 84.7433 241.711 85.8664C240.217 91.6577 238.467 97.3467 236.46 102.933C233.429 104.406 231.679 103.421 231.208 99.9788C232.353 94.0811 234.104 88.3922 236.46 82.9126Z" fill="#D9D9D9"/>
<path fill-rule="evenodd" clip-rule="evenodd" d="M166.226 86.851C171.634 86.3574 176.448 87.7798 180.666 91.1175C188.515 98.1757 192.782 107.037 193.466 117.701C194.361 125.259 192.83 132.261 188.871 138.706C182.313 145.298 175.421 145.626 168.195 139.691C157.479 128.01 153.649 114.335 156.708 98.6661C158.185 93.2771 161.357 89.3387 166.226 86.851Z" fill="#D9D9D9"/>
<path fill-rule="evenodd" clip-rule="evenodd" d="M114.371 87.5074C122.107 87.4923 128.343 90.555 133.078 96.6969C143.231 110.61 144.544 125.27 137.016 140.675C132.347 146.535 126.329 148.614 118.965 146.911C109.352 142.32 103.335 134.772 100.915 124.265C97.7415 112.999 99.2729 102.497 105.509 92.7585C108.067 90.2255 111.021 88.4756 114.371 87.5074Z" fill="#D9D9D9"/>
<path fill-rule="evenodd" clip-rule="evenodd" d="M256.151 95.3841C259.865 95.2686 261.287 97.0192 260.418 100.635C256.568 104.266 252.957 108.095 249.588 112.122C246.07 112.872 244.648 111.45 245.321 107.856C248.579 103.395 252.189 99.2371 256.151 95.3841Z" fill="#D9D9D9"/>
<path fill-rule="evenodd" clip-rule="evenodd" d="M176.728 104.574C180.216 104.075 182.732 105.388 184.276 108.512C186.782 113.061 186.454 117.328 183.292 121.312C179.804 122.139 177.288 120.935 175.743 117.701C173.234 113.035 173.562 108.659 176.728 104.574Z" fill="#F9F9F9"/>
<path fill-rule="evenodd" clip-rule="evenodd" d="M123.56 105.886C128.736 105.909 131.909 108.534 133.078 113.763C133.516 116.389 133.516 119.014 133.078 121.64C129.703 126.829 126.202 126.829 122.575 121.64C119.233 116.045 119.561 110.794 123.56 105.886Z" fill="#FAFAFA"/>
<path fill-rule="evenodd" clip-rule="evenodd" d="M267.966 115.732C272.887 115.275 274.2 117.135 271.905 121.312C268.218 122.725 264.498 124.038 260.746 125.25C257.771 126.319 255.802 125.444 254.839 122.624C255.233 121.571 255.89 120.696 256.808 119.999C260.523 118.362 264.242 116.941 267.966 115.732Z" fill="#D9D9D9"/>
<path fill-rule="evenodd" clip-rule="evenodd" d="M233.834 127.547C235.433 127.427 236.855 127.865 238.101 128.86C241.866 136.894 241.866 144.99 238.101 153.147C234.621 162.401 228.605 169.512 220.05 174.479C218.35 175.342 216.6 175.78 214.799 175.792C219.004 166.739 221.52 157.222 222.347 147.239C227.374 142.869 230.437 137.399 231.537 130.829C231.994 129.461 232.76 128.367 233.834 127.547Z" fill="#FAFAFA"/>
<path fill-rule="evenodd" clip-rule="evenodd" d="M112.402 239.79C131.237 239.662 150.054 240.209 168.851 241.431C175.923 242.098 182.924 243.192 189.856 244.713C194.686 246.457 194.905 248.426 190.512 250.621C178.835 253.159 167.02 254.69 155.067 255.216C131.411 255.945 107.781 255.507 84.1766 253.903C77.4401 253.431 70.8762 252.118 64.4849 249.965C61.8048 248.087 62.0234 246.556 65.1413 245.37C71.7583 243.282 78.5409 241.969 85.4894 241.431C94.5627 240.868 103.533 240.321 112.402 239.79Z" fill="#D9D9D9"/>
</svg>
