<svg width="300" height="300" viewBox="0 0 300 300" fill="none" xmlns="http://www.w3.org/2000/svg">
<path fill-rule="evenodd" clip-rule="evenodd" d="M88.6577 52.0167C90.0347 51.9133 91.2596 52.2903 92.3319 53.1472C94.216 56.5388 96.1005 59.9304 97.9846 63.322C98.5193 66.6169 97.2 67.5592 94.0277 66.1483C92.1058 62.4939 90.033 58.914 87.8098 55.4083C87.5786 54.1675 87.8613 53.037 88.6577 52.0167Z" fill="#D9D9D9"/>
<path fill-rule="evenodd" clip-rule="evenodd" d="M72.8297 63.3225C74.5345 63.5153 76.0415 64.1744 77.3518 65.3009C80.2024 67.9645 83.2175 70.4137 86.396 72.6494C87.7413 76.7656 86.4226 77.8961 82.4392 76.0409C79.5885 73.3774 76.5734 70.9281 73.395 68.6925C71.3917 67.0685 71.2034 65.2783 72.8297 63.3225Z" fill="#D9D9D9"/>
<path fill-rule="evenodd" clip-rule="evenodd" d="M233.936 64.4531C237.292 64.1241 238.329 65.4434 237.045 68.4099C234.245 71.6551 231.513 74.9523 228.849 78.302C226.198 78.5909 225.162 77.3659 225.74 74.6278C228.378 71.1435 231.11 67.7519 233.936 64.4531Z" fill="#D9D9D9"/>
<path fill-rule="evenodd" clip-rule="evenodd" d="M246.938 75.7588C250.41 76.0561 251.164 77.6581 249.199 80.5635C244.689 83.1485 240.072 85.5039 235.35 87.6293C233.098 86.5299 232.815 85.0223 234.502 83.1072C238.869 80.9276 243.015 78.4783 246.938 75.7588Z" fill="#D9D9D9"/>
<path fill-rule="evenodd" clip-rule="evenodd" d="M184.757 96.1091C189.4 96.0282 193.262 97.7241 196.345 101.197C203.126 111.635 204.728 122.846 201.15 134.831C198.487 143.344 193.023 145.982 184.757 142.745C179.156 137.67 175.858 131.357 174.864 123.808C172.667 114.934 174.174 106.832 179.386 99.5008C180.996 98.0017 182.787 96.8711 184.757 96.1091Z" fill="#D9D9D9"/>
<path fill-rule="evenodd" clip-rule="evenodd" d="M138.968 97.8049C144.976 97.6523 149.592 100.102 152.818 105.154C156.865 112.773 158.185 120.875 156.775 129.461C156.221 137.653 152.358 143.589 145.186 147.268C140.419 148.316 136.368 147.091 133.033 143.593C127.055 135.133 124.794 125.711 126.249 115.329C127.479 107.184 131.719 101.343 138.968 97.8049Z" fill="#D9D9D9"/>
<path fill-rule="evenodd" clip-rule="evenodd" d="M146.317 58.8001C187.019 58.743 215.566 77.2087 231.958 114.198C236.856 127.563 238.552 141.318 237.046 155.464C241.341 151.069 246.335 150.033 252.026 152.355C255.403 155.516 256.628 159.379 255.7 163.944C254.079 170.475 250.593 175.846 245.242 180.054C238.688 184.598 231.527 187.895 223.761 189.947C202.377 217.272 174.49 228.107 140.099 222.451C136.742 221.824 133.445 220.976 130.206 219.907C120.836 225.947 110.567 228.302 99.3982 226.973C92.2366 225.937 88.2796 221.886 87.5272 214.819C64.4227 211.593 52.5517 198.309 51.9141 174.967C53.5828 155.205 64.1344 143.145 83.5702 138.788C102.909 137.008 116.758 144.827 125.119 162.248C129.892 176.25 128.007 189.251 119.466 201.253C112.25 209.618 103.111 214.141 92.0495 214.819C92.5792 218.462 94.6521 220.818 98.2676 221.886C104.757 223.152 111.164 222.775 117.487 220.755C121.806 219.072 125.857 216.904 129.641 214.254C155.775 223.573 180.176 220.275 202.846 204.362C209.841 199.063 215.87 192.845 220.935 185.707C228.358 183.674 235.33 180.66 241.851 176.663C246.14 173.256 249.249 169.016 251.178 163.944C252.485 158.29 250.318 155.557 244.677 155.747C241.602 157.504 238.681 159.483 235.915 161.682C235.296 163.879 234.637 166.045 233.937 168.183C232.583 169.396 231.358 169.301 230.262 167.901C236.447 139.129 230.229 113.502 211.608 91.0214C186.762 64.6514 157.272 57.5853 123.14 69.8232C95.9714 82.1498 80.3316 103.065 76.2214 132.57C73.8438 133.042 72.7133 132.006 72.8297 129.461C77.2073 99.139 93.4118 77.7519 121.444 65.3009C129.5 61.9419 137.791 59.7746 146.317 58.8001Z" fill="#D9D9D9"/>
<path fill-rule="evenodd" clip-rule="evenodd" d="M143.49 109.676C145.172 109.567 146.585 110.132 147.73 111.372C150.368 115.706 150.368 120.039 147.73 124.373C144.059 126.204 141.609 125.073 140.382 120.981C140.004 118.343 140.004 115.706 140.382 113.068C141.15 111.641 142.186 110.511 143.49 109.676Z" fill="#F6F6F6"/>
<path fill-rule="evenodd" clip-rule="evenodd" d="M187.583 107.98C190.935 107.729 193.103 109.236 194.083 112.502C194.55 115.379 194.362 118.205 193.518 120.981C190.838 124.129 188.389 123.941 186.17 120.416C183.93 115.86 184.4 111.714 187.583 107.98Z" fill="#F5F5F5"/>
<path fill-rule="evenodd" clip-rule="evenodd" d="M54.74 141.897C57.3532 141.28 58.3893 142.222 57.8489 144.724C53.3155 149.269 49.924 154.545 47.6742 160.551C45.4884 162.238 44.2636 161.673 44 158.855C45.8812 152.067 49.461 146.414 54.74 141.897Z" fill="#D9D9D9"/>
<path fill-rule="evenodd" clip-rule="evenodd" d="M83.5701 146.985C92.3965 145.893 100.311 147.966 107.312 153.203C93.6481 166.678 79.8924 180.245 66.0462 193.904C58.4329 181.762 58.5273 169.703 66.3289 157.726C71.1016 152.471 76.8489 148.891 83.5701 146.985Z" fill="white"/>
<path fill-rule="evenodd" clip-rule="evenodd" d="M167.232 147.55C173.393 147.004 178.197 149.265 181.646 154.334C182.398 157.159 181.362 158.383 178.538 158.008C176.498 154.924 173.672 153.134 170.059 152.638C168.63 152.786 167.311 153.257 166.102 154.051C164.406 156.124 162.71 158.196 161.014 160.269C158.982 160.875 157.852 160.121 157.623 158.008C159.169 152.976 162.373 149.49 167.232 147.55Z" fill="#D9D9D9"/>
<path fill-rule="evenodd" clip-rule="evenodd" d="M112.965 159.421C117.319 164.285 119.392 170.032 119.183 176.663C119.326 188.567 114.239 197.423 103.921 203.231C93.2553 207.877 82.8919 207.311 72.8298 201.535C72.2922 201.129 72.1983 200.659 72.5471 200.122C86.1185 186.645 99.591 173.078 112.965 159.421Z" fill="white"/>
<path fill-rule="evenodd" clip-rule="evenodd" d="M246.372 191.077C248.626 191.163 249.474 192.294 248.916 194.469C243.064 200.791 235.904 203.807 227.436 203.513C227.007 202.231 227.102 201.006 227.718 199.839C235.001 199.021 241.219 196.1 246.372 191.077Z" fill="#D9D9D9"/>
<path fill-rule="evenodd" clip-rule="evenodd" d="M131.62 232.909C150.673 232.613 169.704 233.084 188.714 234.322C195.639 234.631 202.422 235.761 209.064 237.714C210.371 238.076 211.314 238.83 211.89 239.975C211.71 240.909 211.144 241.475 210.195 241.671C198.146 244.708 185.898 246.404 173.451 246.758C154.963 247.354 136.496 246.976 118.053 245.628C111.096 245.092 104.313 243.774 97.7023 241.671C96.3835 240.968 96.0064 240.026 96.5717 238.844C98.8312 237.462 101.281 236.52 103.92 236.018C113.213 234.737 122.446 233.701 131.62 232.909Z" fill="#D9D9D9"/>
</svg>
