<svg width="300" height="300" viewBox="0 0 300 300" fill="none" xmlns="http://www.w3.org/2000/svg">
<path fill-rule="evenodd" clip-rule="evenodd" d="M51.1632 66.6059C52.6815 66.5382 53.8397 67.1701 54.6384 68.5014C56.5725 73.0008 58.6784 77.4237 60.9568 81.7702C61.6771 83.6834 61.1502 85.0526 59.3772 85.8772C58.1976 86.3264 57.2498 86.0105 56.5339 84.9294C54.2169 80.085 51.9006 75.2413 49.5836 70.3969C49.2411 68.7655 49.7681 67.5018 51.1632 66.6059Z" fill="#D9D9D9"/>
<path fill-rule="evenodd" clip-rule="evenodd" d="M32.2078 82.4022C33.2813 82.3011 34.3346 82.406 35.367 82.7181C40.3163 86.4037 45.2662 90.0899 50.2154 93.7754C50.4448 97.4231 48.8652 98.3708 45.4766 96.6187C41.2641 93.6699 37.0522 90.7217 32.8397 87.7729C30.6194 86.173 30.4089 84.383 32.2078 82.4022Z" fill="#D9D9D9"/>
<path fill-rule="evenodd" clip-rule="evenodd" d="M226.817 35.0136C248.162 34.5801 261.957 44.4787 268.203 64.7104C270.413 88.8103 259.777 103.448 236.294 108.624C214.758 109.486 201.174 99.4822 195.54 78.6111C193.089 62.348 198.67 49.6055 212.284 40.3843C216.952 37.8835 221.796 36.0928 226.817 35.0136Z" fill="#D9D9D9"/>
<path fill-rule="evenodd" clip-rule="evenodd" d="M225.553 41.3321C244.765 40.2302 257.086 48.8656 262.516 67.2378C263.52 85.6043 255.2 97.2935 237.558 102.305C219.619 103.922 207.719 96.2339 201.859 79.2429C199.084 59.8206 206.982 47.1836 225.553 41.3321Z" fill="#FBFBFB"/>
<path fill-rule="evenodd" clip-rule="evenodd" d="M219.866 57.76C221.4 57.7746 222.874 58.0905 224.289 58.7078C226.922 61.3407 229.554 63.973 232.187 66.6059C235.216 63.0448 238.691 60.096 242.613 57.76C245.505 58.6244 246.453 60.5199 245.456 63.4467C242.94 66.4896 240.308 69.4378 237.558 72.2925C240.076 75.1263 242.708 77.8641 245.456 80.5065C246.604 85.1544 244.813 86.9444 240.085 85.8772C237.443 83.1293 234.705 80.497 231.871 77.9791C229.248 80.286 226.72 82.7079 224.289 85.2454C219.332 87.4511 217.332 85.8715 218.286 80.5065C221.067 77.6771 223.7 74.7283 226.185 71.6607C223.667 68.8268 221.034 66.089 218.286 63.4467C217.61 61.1455 218.137 59.2499 219.866 57.76Z" fill="#D9D9D9"/>
<path fill-rule="evenodd" clip-rule="evenodd" d="M133.303 64.0785C151.378 63.3323 168.227 67.4393 183.851 76.3995C185.536 78.0846 185.536 79.7691 183.851 81.4543C183.009 81.8757 182.166 81.8757 181.324 81.4543C150.958 64.9239 121.262 65.9765 92.2332 84.6135C64.5015 103.964 52.1805 130.607 55.2702 164.542C56.0335 170.179 57.4027 175.654 59.3772 180.97C66.9966 181.786 73.631 184.735 79.2804 189.816C80.1207 192.974 78.9619 194.342 75.8052 193.923C71.7544 190.529 67.1211 188.317 61.9046 187.289C56.7601 188.222 53.3898 191.17 51.795 196.134C54.0798 203.37 58.7131 208.53 65.6957 211.615C68.1529 212.516 70.5748 213.464 72.9619 214.458C73.4724 215.772 73.3669 217.035 72.646 218.249C69.0868 218.128 67.0864 219.813 66.6434 223.304C65.2647 230.329 68.108 234.647 75.1734 236.257C86.5194 237.596 96.9449 235.173 106.45 228.99C133.258 236.92 158.848 234.077 183.219 220.46C202.622 206.835 213.891 188.196 217.023 164.542C218.922 146.55 215.446 129.701 206.597 113.994C207.22 111.69 208.695 110.953 211.02 111.783C217.805 122.238 221.702 133.716 222.71 146.219C223.645 158.931 222.171 171.358 218.287 183.497C217.161 186.485 215.791 189.329 214.18 192.027C218.728 190.377 223.466 189.218 228.396 188.552C238.535 189.626 242.537 195.102 240.401 204.98C236.087 212.863 229.453 217.601 220.498 219.197C212.691 220.512 205.319 219.354 198.383 215.722C180.015 231.431 158.638 239.223 134.251 239.1C125.173 238.914 116.327 237.439 107.713 234.677C96.1911 241.692 83.8701 243.693 70.7504 240.68C60.5916 235.802 57.8538 228.114 62.5364 217.617C58.6076 214.845 54.9214 211.685 51.4791 208.139C47.6179 203.792 45.9334 198.738 46.4243 192.975C47.0562 191.711 47.688 190.448 48.3199 189.184C50.4852 187.339 52.2759 185.233 53.6906 182.866C42.3887 144.341 51.6554 111.801 81.4918 85.2453C96.61 72.8024 113.88 65.7466 133.303 64.0785Z" fill="#D9D9D9"/>
<path fill-rule="evenodd" clip-rule="evenodd" d="M174.373 101.358C182.336 100.337 188.339 103.286 192.381 110.203C198.756 121.111 200.441 132.695 197.436 144.955C194.122 155.828 187.276 159.092 176.901 154.749C168.826 147.186 164.508 137.814 163.948 126.631C162.616 119.385 163.88 112.645 167.739 106.412C169.597 104.177 171.808 102.493 174.373 101.358Z" fill="#D9D9D9"/>
<path fill-rule="evenodd" clip-rule="evenodd" d="M118.771 103.885C128.334 103.233 135.18 107.235 139.306 115.89C145.059 128.122 145.48 140.548 140.57 153.169C134.837 163.981 126.729 166.193 116.243 159.803C105.454 147.072 102.4 132.645 107.082 116.522C109.178 110.533 113.074 106.321 118.771 103.885Z" fill="#D9D9D9"/>
<path fill-rule="evenodd" clip-rule="evenodd" d="M180.692 113.994C184.947 113.967 187.369 116.073 187.958 120.313C188.838 124.372 188.101 128.057 185.747 131.37C183.644 132.606 181.748 132.29 180.06 130.422C177.675 126.548 176.939 122.335 177.848 117.785C178.356 116.114 179.304 114.85 180.692 113.994Z" fill="#F7F7F7"/>
<path fill-rule="evenodd" clip-rule="evenodd" d="M126.985 119.049C130.663 118.819 133.085 120.504 134.251 124.104C136.094 128.941 135.146 133.048 131.408 136.425C130.144 136.846 128.88 136.846 127.617 136.425C124.039 132.572 122.881 128.044 124.141 122.84C124.65 121.168 125.597 119.905 126.985 119.049Z" fill="#F7F7F7"/>
<path fill-rule="evenodd" clip-rule="evenodd" d="M231.871 121.577C232.945 121.476 233.998 121.581 235.031 121.893C236.002 123.333 236.739 124.913 237.242 126.632C240.29 142.664 240.08 158.671 236.61 174.652C235.892 177.017 235.05 179.334 234.083 181.602C231.68 183.545 229.89 183.124 228.712 180.338C234.665 161.875 235.297 143.236 230.608 124.42C230.62 123.262 231.041 122.314 231.871 121.577Z" fill="#D9D9D9"/>
<path fill-rule="evenodd" clip-rule="evenodd" d="M255.25 146.219C256.768 146.151 257.926 146.783 258.725 148.114C259.359 158.212 257.674 167.9 253.67 177.179C251.203 179.833 249.413 179.413 248.299 175.915C251.922 167.026 253.713 157.76 253.67 148.114C254.33 147.562 254.857 146.931 255.25 146.219Z" fill="#D9D9D9"/>
<path fill-rule="evenodd" clip-rule="evenodd" d="M155.418 155.696C159.535 154.898 163.01 155.952 165.843 158.856C166.675 161.148 165.937 162.622 163.632 163.279C162.357 162.853 161.305 162.115 160.473 161.067C159.209 160.646 157.945 160.646 156.681 161.067C155.654 162.728 154.39 164.202 152.89 165.49C150.062 165.594 149.114 164.225 150.047 161.383C151.114 158.739 152.904 156.843 155.418 155.696Z" fill="#D9D9D9"/>
<path fill-rule="evenodd" clip-rule="evenodd" d="M225.553 194.239C229.556 193.733 232.82 194.997 235.347 198.03C235.866 202.785 234.075 206.471 229.976 209.087C221.013 215.251 211.746 215.883 202.175 210.983C205.276 207.306 208.224 203.515 211.02 199.61C215.861 197.612 220.705 195.822 225.553 194.239Z" fill="#F8F8F8"/>
<path fill-rule="evenodd" clip-rule="evenodd" d="M120.035 249.21C139.034 248.842 157.99 249.579 176.901 251.421C182.697 251.888 188.384 252.941 193.961 254.58C197.104 255.181 197.736 256.655 195.856 259.003C188.645 261.224 181.273 262.698 173.741 263.426C148.257 265.525 122.773 265.525 97.288 263.426C90.6777 262.832 84.1482 261.78 77.7008 260.267C76.2817 259.611 74.9125 258.873 73.5938 258.056C73.2735 257.11 73.5894 256.373 74.5416 255.844C79.2071 253.976 84.0509 252.713 89.074 252.053C99.4926 251.133 109.813 250.185 120.035 249.21Z" fill="#D9D9D9"/>
</svg>
