<svg width="300" height="300" viewBox="0 0 300 300" fill="none" xmlns="http://www.w3.org/2000/svg">
<path fill-rule="evenodd" clip-rule="evenodd" d="M54.7787 44.4303C54.5972 44.5017 54.496 44.6537 54.4747 44.8862C54.6711 46.7647 54.8738 48.6392 55.0826 50.5094C66.125 50.8641 77.1687 50.9146 88.2138 50.6614C77.22 50.6106 66.2776 50.4587 55.3866 50.2055C66.329 50.2055 77.2714 50.2055 88.2138 50.2055C87.5354 45.6917 89.0552 42.1962 92.7732 39.719C96.2881 38.3813 99.3784 39.0399 102.044 41.6947C103.828 44.2513 104.487 47.0881 104.02 50.2055C108.084 50.1046 112.136 50.2565 116.178 50.6614C121.51 52.3958 124.752 55.9925 125.904 61.4518C125.651 67.7829 125.499 74.166 125.448 80.6011C125.23 80.7664 125.079 80.9692 124.993 81.209C123.943 82.0901 122.829 82.9008 121.649 83.6406C121.148 76.3627 120.844 69.0678 120.737 61.7558C120.636 61.7558 120.534 61.7558 120.433 61.7558C119.577 58.6205 117.551 56.6448 114.354 55.8287C110.911 55.6767 107.466 55.6259 104.02 55.6767C103.916 62.3157 100.573 65.406 93.989 64.9473C89.9488 63.2032 88.0236 60.1132 88.2138 55.6767C77.2714 55.6767 66.329 55.6767 55.3866 55.6767C55.603 61.1804 53.0194 64.3212 47.6357 65.0993C42.0843 64.4589 39.3994 61.3181 39.5809 55.6767C35.8161 55.5569 32.0671 55.7089 28.3345 56.1326C25.3755 57.318 23.7544 59.4965 23.4712 62.6677C23.4205 86.1738 23.4712 109.68 23.6232 133.185C23.9606 136.345 25.6324 138.422 28.6385 139.417C47.0783 139.569 65.518 139.619 83.9584 139.569C84.0399 140.055 83.9384 140.46 83.6545 140.784C83.2086 141.858 82.9046 143.175 82.7426 144.736C64.5551 144.635 46.4193 144.736 28.3345 145.04C22.5481 143.458 19.1539 139.709 18.152 133.793C17.9493 109.477 17.9493 85.1604 18.152 60.8439C19.7631 54.7739 23.6638 51.2784 29.8543 50.3574C33.0948 50.2055 36.3371 50.1547 39.5809 50.2055C38.9252 46.4489 39.9386 43.2573 42.6204 40.6309C46.4433 38.146 49.9895 38.5007 53.2589 41.6947C54.0042 42.4762 54.5109 43.388 54.7787 44.4303Z" fill="#D9D9D9"/>
<path fill-rule="evenodd" clip-rule="evenodd" d="M46.8758 44.4303C48.2505 44.3832 49.2129 44.9911 49.7633 46.254C49.9661 50.1042 49.9661 53.9541 49.7633 57.8043C48.2004 60.208 46.6806 60.208 45.204 57.8043C45.0013 53.8529 45.0013 49.9015 45.204 45.9501C45.7298 45.3719 46.287 44.8652 46.8758 44.4303Z" fill="#FDFDFD"/>
<path fill-rule="evenodd" clip-rule="evenodd" d="M95.5087 44.4303C96.8835 44.3832 97.8459 44.9911 98.3963 46.254C98.5991 50.1042 98.5991 53.9541 98.3963 57.8043C97.8155 59.2992 96.7516 59.8563 95.2048 59.4761C94.5027 58.9785 94.0467 58.3198 93.837 57.5004C93.6343 53.7517 93.6343 50.0027 93.837 46.254C94.2504 45.4871 94.8075 44.8792 95.5087 44.4303Z" fill="#FDFDFD"/>
<path fill-rule="evenodd" clip-rule="evenodd" d="M54.7787 44.4303C55.3295 46.2987 55.5322 48.2237 55.3866 50.2055C66.2776 50.4587 77.2201 50.6106 88.2138 50.6614C77.1687 50.9146 66.1251 50.8641 55.0826 50.5094C54.8738 48.6392 54.6711 46.7647 54.4747 44.8862C54.496 44.6537 54.5972 44.5017 54.7787 44.4303Z" fill="#D9D9D9"/>
<path fill-rule="evenodd" clip-rule="evenodd" d="M248.095 53.245C250.68 53.1447 251.845 54.3605 251.59 56.8925C248.223 63.3239 244.778 69.7069 241.256 76.0417C239.49 77.7417 237.868 77.6405 236.392 75.7377C236.19 74.8259 236.19 73.914 236.392 73.0021C239.837 66.7203 243.282 60.4387 246.727 54.1569C247.229 53.8836 247.685 53.5796 248.095 53.245Z" fill="#D9D9D9"/>
<path fill-rule="evenodd" clip-rule="evenodd" d="M120.433 61.7558C120.131 65.4504 120.029 69.1994 120.129 73.0022C88.0111 73.0022 55.8933 73.0022 23.7751 73.0022C23.8749 69.503 23.7736 66.058 23.4712 62.6677C23.7544 59.4965 25.3755 57.318 28.3345 56.1326C32.0671 55.7089 35.8161 55.5569 39.5809 55.6767C39.3994 61.3181 42.0842 64.4589 47.6357 65.0993C53.0194 64.3212 55.603 61.1804 55.3866 55.6767C66.329 55.6767 77.2714 55.6767 88.2138 55.6767C88.0235 60.1132 89.9488 63.2032 93.989 64.9473C100.573 65.406 103.916 62.3157 104.02 55.6767C107.466 55.6259 110.911 55.6767 114.354 55.8286C117.551 56.6448 119.577 58.6205 120.433 61.7558Z" fill="#E2E2E2"/>
<path fill-rule="evenodd" clip-rule="evenodd" d="M265.724 71.1784C269.233 70.9009 270.398 72.4206 269.219 75.7377C264.204 79.9423 259.189 84.1473 254.174 88.3519C252.312 89.5808 250.843 89.2261 249.766 87.288C249.564 86.4774 249.564 85.667 249.766 84.8564C255.022 80.1837 260.342 75.6243 265.724 71.1784Z" fill="#D9D9D9"/>
<path fill-rule="evenodd" clip-rule="evenodd" d="M120.433 61.7559C120.534 61.7559 120.636 61.7559 120.737 61.7559C120.637 69.2046 120.738 76.6008 121.041 83.9446C121.023 84.1097 120.922 84.2109 120.737 84.2486C120.433 76.7537 120.332 69.2563 120.433 61.7559Z" fill="#D9D9D9"/>
<path fill-rule="evenodd" clip-rule="evenodd" d="M125.904 61.4519C125.955 67.9371 125.904 74.4214 125.752 80.9051C125.548 81.1337 125.295 81.2352 124.992 81.209C125.078 80.9692 125.23 80.7665 125.448 80.6011C125.499 74.1661 125.651 67.783 125.904 61.4519Z" fill="#D9D9D9"/>
<path fill-rule="evenodd" clip-rule="evenodd" d="M120.737 61.7559C120.844 69.0678 121.148 76.3628 121.649 83.6407C121.446 83.7419 121.244 83.8434 121.041 83.9446C120.738 76.6008 120.637 69.2046 120.737 61.7559Z" fill="#D9D9D9"/>
<path fill-rule="evenodd" clip-rule="evenodd" d="M164.507 76.3456C191.545 74.4022 214.696 82.8117 233.961 101.574C250.058 119.317 257.099 140.188 255.086 164.189C258.282 163.076 260.967 161.252 263.14 158.718C264.185 155.547 265.857 152.761 268.156 150.359C271.241 147.838 274.585 147.433 278.186 149.143C281.864 152.777 283.434 157.184 282.898 162.365C281.937 168.844 279.404 174.619 275.299 179.691C265.789 190.711 253.985 198.158 239.888 202.031C225.166 220.286 206.016 230.317 182.44 232.123C170.267 233.17 158.413 231.701 146.877 227.716C140.46 231.155 133.671 233.536 126.512 234.859C117.887 236.436 109.883 234.916 102.5 230.299C100.535 228.844 99.1675 226.97 98.3963 224.676C98.1936 223.359 98.1936 222.042 98.3963 220.725C99.5301 218.356 100.746 216.026 102.044 213.734C103.636 208.172 103.332 202.701 101.132 197.32C98.2635 191.381 95.7303 185.301 93.533 179.083C84.7976 144.703 93.9671 116.182 121.041 93.5192C133.926 83.7692 148.414 78.0448 164.507 76.3456Z" fill="#D9D9D9"/>
<path fill-rule="evenodd" clip-rule="evenodd" d="M168.458 81.8169C190.539 80.9862 209.891 87.724 226.514 102.03C243.541 118.148 251.19 137.956 249.462 161.453C248.903 165.524 248.244 169.577 247.487 173.612C247.878 176.189 249.297 176.949 251.742 175.891C252.107 175.617 252.361 175.262 252.502 174.827C252.905 173.52 253.259 172.203 253.566 170.876C257.429 169.4 261.077 167.526 264.508 165.253C267.062 163.234 268.734 160.65 269.524 157.502C270.385 155.83 271.651 154.564 273.323 153.703C274.074 153.488 274.784 153.589 275.451 154.006C277.453 156.567 278.112 159.455 277.426 162.669C276.334 167.893 274.105 172.554 270.739 176.651C263.815 184.625 255.405 190.501 245.511 194.281C245.359 194.179 245.207 194.078 245.055 193.977C245.617 191.962 244.857 190.746 242.775 190.329C242.281 190.367 241.825 190.519 241.408 190.785C222.199 219.019 195.553 230.671 161.467 225.74C156.475 224.733 151.561 223.466 146.725 221.941C146.269 221.991 145.813 222.042 145.358 222.093C138.377 226.192 130.88 228.726 122.865 229.691C116.008 230.549 109.878 228.877 104.475 224.676C103.793 223.649 103.59 222.534 103.868 221.333C107.996 215.688 109.414 209.406 108.123 202.487C106.776 196.522 104.648 190.848 101.74 185.466C92.9799 163.411 93.993 141.831 104.779 120.723C119.262 96.8837 140.488 83.9151 168.458 81.8169Z" fill="#FEFEFE"/>
<path fill-rule="evenodd" clip-rule="evenodd" d="M37.1492 82.4248C41.7097 82.374 46.2691 82.4248 50.8272 82.5768C52.0977 82.8813 52.9592 83.6412 53.4108 84.8564C53.6136 89.9225 53.6136 94.9882 53.4108 100.054C53.1424 100.845 52.6865 101.504 52.043 102.03C46.9034 102.528 41.7362 102.629 36.5413 102.334C35.8957 101.993 35.3385 101.537 34.8695 100.966C34.3756 95.6162 34.2741 90.2465 34.5656 84.8564C35.0914 83.6619 35.9528 82.8513 37.1492 82.4248Z" fill="#D9D9D9"/>
<path fill-rule="evenodd" clip-rule="evenodd" d="M64.8093 82.4248C69.3698 82.374 73.9292 82.4248 78.4873 82.5768C79.4138 82.761 80.1737 83.2169 80.767 83.9446C81.2652 89.3881 81.3667 94.8593 81.0709 100.358C80.7299 101.004 80.274 101.561 79.7031 102.03C74.5635 102.528 69.3963 102.629 64.2014 102.334C63.2202 101.859 62.5615 101.099 62.2257 100.054C62.0229 94.9882 62.0229 89.9225 62.2257 84.8564C62.8634 83.7613 63.7248 82.9506 64.8093 82.4248Z" fill="#D9D9D9"/>
<path fill-rule="evenodd" clip-rule="evenodd" d="M92.4692 82.4248C97.0298 82.374 101.589 82.4248 106.147 82.5768C107.418 82.8813 108.279 83.6412 108.731 84.8564C108.934 88.0987 108.934 91.3407 108.731 94.583C106.126 96.9843 103.745 99.5679 101.588 102.334C98.4471 102.537 95.306 102.537 92.1652 102.334C91.3041 101.878 90.6455 101.219 90.1895 100.358C89.9868 95.0897 89.9868 89.821 90.1895 84.5525C90.719 83.5659 91.4789 82.8567 92.4692 82.4248Z" fill="#D9D9D9"/>
<path fill-rule="evenodd" clip-rule="evenodd" d="M36.5413 110.693C41.507 110.642 46.4716 110.693 51.4352 110.845C52.0808 111.186 52.6379 111.642 53.1069 112.212C53.6048 117.453 53.706 122.722 53.4109 128.018C53.2011 128.838 52.7452 129.496 52.0431 129.994C46.9035 130.492 41.7362 130.593 36.5413 130.298C35.8957 129.957 35.3386 129.501 34.8696 128.93C34.3714 123.588 34.2702 118.218 34.5656 112.82C35.0805 111.952 35.7392 111.242 36.5413 110.693Z" fill="#D9D9D9"/>
<path fill-rule="evenodd" clip-rule="evenodd" d="M63.8973 110.693C69.0655 110.642 74.2327 110.693 79.3991 110.845C79.9419 111.083 80.3979 111.438 80.7669 111.908C81.2654 117.454 81.3666 123.026 81.0708 128.626C80.8322 129.169 80.4778 129.625 80.007 129.994C74.7662 130.492 69.4977 130.593 64.2013 130.298C63.5557 129.957 62.9985 129.501 62.5295 128.93C62.0313 123.588 61.9301 118.218 62.2256 112.82C62.732 112.062 63.2894 111.353 63.8973 110.693Z" fill="#D9D9D9"/>
<path fill-rule="evenodd" clip-rule="evenodd" d="M159.947 112.82C165.241 112.302 169.648 114.024 173.17 117.988C180.75 128.116 182.372 139.16 178.033 151.119C176.067 156.227 172.47 159.52 167.242 160.997C162.026 161.455 157.72 159.681 154.324 155.678C147.919 146.767 145.994 136.939 148.549 126.195C149.685 121.945 151.863 118.348 155.084 115.404C156.599 114.293 158.22 113.432 159.947 112.82Z" fill="#D9D9D9"/>
<path fill-rule="evenodd" clip-rule="evenodd" d="M202.501 114.036C206.289 113.539 209.633 114.501 212.532 116.924C219.438 123.962 222.427 132.423 221.499 142.304C221.23 147.679 219.153 152.187 215.267 155.83C210.512 158.691 205.952 158.387 201.589 154.918C197.182 150.715 194.396 145.599 193.231 139.569C191.73 132.546 192.642 125.859 195.966 119.507C197.646 117.066 199.824 115.243 202.501 114.036Z" fill="#D9D9D9"/>
<path fill-rule="evenodd" clip-rule="evenodd" d="M207.668 123.155C210.3 123.18 212.175 124.396 213.292 126.802C214.913 129.985 214.66 132.974 212.532 135.769C209.687 137.062 207.509 136.302 205.997 133.489C204.722 130.689 204.621 127.852 205.693 124.979C206.32 124.3 206.978 123.692 207.668 123.155Z" fill="#FDFDFD"/>
<path fill-rule="evenodd" clip-rule="evenodd" d="M165.723 123.763C169.449 123.682 171.728 125.506 172.562 129.234C172.83 131.387 172.729 133.514 172.258 135.617C170.124 139.489 167.49 139.895 164.355 136.833C161.887 132.923 161.785 128.972 164.051 124.979C164.602 124.53 165.159 124.125 165.723 123.763Z" fill="#FDFDFD"/>
<path fill-rule="evenodd" clip-rule="evenodd" d="M83.6545 140.784C83.5086 142.313 83.3059 143.833 83.0466 145.344C64.7965 145.443 46.5591 145.341 28.3345 145.04C46.4193 144.736 64.5551 144.635 82.7427 144.736C82.9047 143.175 83.2086 141.858 83.6545 140.784Z" fill="#D9D9D9"/>
<path fill-rule="evenodd" clip-rule="evenodd" d="M68.4567 179.387C71.3436 178.983 72.7114 180.199 72.5601 183.034C72.219 183.68 71.7631 184.237 71.1923 184.706C65.1095 186.834 59.0304 188.962 52.9549 191.089C50.7856 191.453 49.5697 190.541 49.3074 188.353C49.3248 187.524 49.6287 186.815 50.2193 186.226C56.3167 183.907 62.3958 181.628 68.4567 179.387Z" fill="#D9D9D9"/>
<path fill-rule="evenodd" clip-rule="evenodd" d="M76.9675 194.585C80.4837 194.301 81.6487 195.821 80.463 199.144C76.3046 203.252 72.2012 207.406 68.1528 211.606C65.688 213.059 64.0667 212.401 63.2895 209.63C63.4138 208.925 63.6673 208.266 64.0494 207.655C68.4169 203.338 72.7228 198.981 76.9675 194.585Z" fill="#D9D9D9"/>
<path fill-rule="evenodd" clip-rule="evenodd" d="M154.476 243.217C173.467 242.92 192.414 243.68 211.316 245.497C216.23 246.147 221.093 247.059 225.906 248.233C227.46 248.756 228.98 249.364 230.465 250.056C231.681 251.07 231.681 252.083 230.465 253.096C228.064 254.369 225.531 255.281 222.866 255.832C208.908 258.441 194.824 259.859 180.616 260.087C161.212 260.763 141.86 260.054 122.561 257.959C116.422 257.34 110.444 256.023 104.627 254.008C101.115 252.562 101.013 250.941 104.323 249.145C108.843 247.458 113.503 246.343 118.305 245.801C130.371 244.4 142.428 243.538 154.476 243.217Z" fill="#DEDEDE"/>
</svg>
