<svg width="300" height="300" viewBox="0 0 300 300" fill="none" xmlns="http://www.w3.org/2000/svg">
<path fill-rule="evenodd" clip-rule="evenodd" d="M225.986 28.0215C231.138 27.7513 232.943 30.0315 231.402 34.8622C227.542 41.5696 223.457 48.1253 219.145 54.5294C214.995 55.5093 213.19 53.8937 213.73 49.6838C216.814 43.3236 220.045 37.053 223.421 30.8718C224.394 29.9956 225.249 29.0453 225.986 28.0215Z" fill="#D9D9D9"/>
<path fill-rule="evenodd" clip-rule="evenodd" d="M147.318 40.5628C141.237 41.3227 135.157 41.3227 129.076 40.5628C135.15 39.8782 141.231 39.8782 147.318 40.5628Z" fill="#D9D9D9"/>
<path fill-rule="evenodd" clip-rule="evenodd" d="M129.076 40.5628C135.156 41.3227 141.237 41.3227 147.318 40.5628C189.135 45.8319 217.163 68.2547 231.402 107.83C242.134 148.427 232.349 183.105 202.044 211.866C177.733 231.912 149.99 239.133 118.815 233.529C112.945 232.206 107.244 230.401 101.713 228.113C96.0286 231.335 90.1381 234.281 84.0407 236.949C71.2731 242.266 58.7317 241.886 46.4166 235.809C41.0911 232.382 39.0959 227.537 40.431 221.273C41.0666 218.862 42.0163 216.581 43.2813 214.432C49.4277 207.407 51.3277 199.426 48.9819 190.489C31.8966 152.526 34.7469 116.233 57.5328 81.6073C75.4841 57.8516 99.3315 44.1702 129.076 40.5628Z" fill="#D9D9D9"/>
<path fill-rule="evenodd" clip-rule="evenodd" d="M131.926 48.5436C169.117 47.42 197.336 62.6219 216.58 94.1486C231.517 123.53 231.327 152.793 216.01 181.938C194.06 216.71 162.611 231.246 121.665 225.548C114.356 223.935 107.23 221.75 100.288 218.992C92.1625 225.001 83.1367 229.276 73.2096 231.819C66.4481 233.213 59.7972 232.833 53.2575 230.678C50.2116 229.441 48.3116 227.256 47.5568 224.123C50.4875 218.262 53.4325 212.371 56.3928 206.451C57.6441 202.347 58.0238 198.167 57.5329 193.909C54.0726 183.149 50.8427 172.318 47.8419 161.416C41.399 118.762 55.9356 85.4135 91.4516 61.37C104.096 54.1758 117.587 49.9004 131.926 48.5436Z" fill="#FBFBFB"/>
<path fill-rule="evenodd" clip-rule="evenodd" d="M253.919 47.9736C258.251 47.879 259.866 49.9694 258.765 54.2443C251.69 59.2557 244.374 63.9114 236.818 68.2108C233.879 69.1668 232.169 68.1219 231.687 65.0755C231.938 63.5283 232.698 62.2936 233.967 61.3701C240.655 56.8911 247.306 52.4258 253.919 47.9736Z" fill="#D9D9D9"/>
<path fill-rule="evenodd" clip-rule="evenodd" d="M182.092 91.2984C187.175 90.6177 191.546 92.0429 195.203 95.5738C205.179 107.076 208.504 120.282 205.179 135.193C201.469 145.992 194.723 148.558 184.942 142.889C181.674 139.997 179.299 136.481 177.816 132.343C173.339 122.476 172.009 112.215 173.826 101.559C175.243 97.0127 177.998 93.5923 182.092 91.2984Z" fill="#D9D9D9"/>
<path fill-rule="evenodd" clip-rule="evenodd" d="M190.642 106.69C194.878 106.964 197.254 109.244 197.768 113.531C198.149 115.241 198.149 116.951 197.768 118.661C196.473 122.091 194.287 122.851 191.213 120.942C187.004 116.206 186.815 111.456 190.642 106.69Z" fill="#FBFBFB"/>
<path fill-rule="evenodd" clip-rule="evenodd" d="M130.786 91.8684C138.184 91.3388 144.169 93.9993 148.743 99.8492C159.488 114.654 160.818 130.235 152.733 146.594C148.465 151.716 143.05 153.521 136.487 152.01C131.36 150.113 127.465 146.788 124.8 142.034C118.27 130.783 116.369 118.811 119.1 106.12C121.085 99.6816 124.98 94.9307 130.786 91.8684Z" fill="#D9D9D9"/>
<path fill-rule="evenodd" clip-rule="evenodd" d="M139.907 110.68C144.035 110.037 146.6 111.748 147.602 115.811C148.698 118.652 148.698 121.502 147.602 124.362C146.144 126.478 144.149 127.143 141.617 126.357C138.65 124.227 137.129 121.282 137.056 117.521C136.982 114.736 137.932 112.456 139.907 110.68Z" fill="#FBFBFB"/>
<path fill-rule="evenodd" clip-rule="evenodd" d="M245.938 252.056C245.438 253.645 244.298 254.404 242.518 254.336C241.126 254.458 240.176 253.888 239.668 252.626C239.013 231.741 238.919 210.838 239.383 189.919C241.473 187.639 243.563 187.639 245.653 189.919C245.938 210.631 246.034 231.343 245.938 252.056Z" fill="#D9D9D9"/>
<path fill-rule="evenodd" clip-rule="evenodd" d="M245.939 252.056C246.034 231.343 245.939 210.63 245.654 189.919C243.563 187.639 241.473 187.639 239.383 189.919C238.919 210.838 239.013 231.74 239.668 252.626C239.065 251.999 238.589 251.238 238.243 250.346C237.862 230.393 237.862 210.441 238.243 190.489C239.903 187.531 242.279 186.866 245.368 188.494C246.053 189.009 246.529 189.673 246.794 190.489C247.174 210.441 247.174 230.393 246.794 250.346C246.661 251.051 246.376 251.621 245.939 252.056Z" fill="#D9D9D9"/>
<path fill-rule="evenodd" clip-rule="evenodd" d="M261.33 236.664C258.403 239.163 256.123 238.593 254.489 234.954C254.964 225.551 255.249 216.05 255.344 206.451C257.718 204.03 259.807 204.22 261.615 207.021C262.074 216.927 261.979 226.808 261.33 236.664Z" fill="#D9D9D9"/>
<path fill-rule="evenodd" clip-rule="evenodd" d="M231.117 210.441C230.643 218.894 230.358 227.445 230.262 236.094C230.032 236.876 229.747 237.636 229.407 238.374C229.477 238.72 229.667 238.91 229.977 238.944C226.917 241.542 224.541 240.972 222.851 237.234C222.471 227.923 222.471 218.612 222.851 209.301C224.569 205.537 227.04 204.967 230.262 207.591C230.837 208.46 231.122 209.411 231.117 210.441Z" fill="#D9D9D9"/>
<path fill-rule="evenodd" clip-rule="evenodd" d="M261.33 236.664C261.979 226.808 262.074 216.927 261.615 207.021C259.807 204.22 257.718 204.03 255.344 206.451C255.249 216.05 254.964 225.551 254.489 234.954C254.394 225.261 254.489 215.57 254.774 205.881C257.532 202.725 260.002 202.915 262.185 206.451C262.565 216.332 262.565 226.213 262.185 236.094C261.967 236.411 261.682 236.601 261.33 236.664Z" fill="#D9D9D9"/>
<path fill-rule="evenodd" clip-rule="evenodd" d="M209.454 219.562C211.84 219.109 213.644 219.868 214.87 221.843C215.25 226.213 215.25 230.583 214.87 234.954C213.638 237.02 211.833 237.685 209.454 236.949C208.322 236.197 207.656 235.152 207.459 233.814C207.079 230.013 207.079 226.213 207.459 222.413C208.028 221.373 208.693 220.423 209.454 219.562Z" fill="#D9D9D9"/>
<path fill-rule="evenodd" clip-rule="evenodd" d="M231.116 210.441C231.212 219.184 231.116 227.925 230.831 236.664C230.598 237.463 230.313 238.223 229.976 238.944C229.667 238.91 229.477 238.72 229.406 238.374C229.747 237.636 230.032 236.876 230.261 236.094C230.358 227.445 230.643 218.894 231.116 210.441Z" fill="#D9D9D9"/>
<path fill-rule="evenodd" clip-rule="evenodd" d="M112.544 254.336C130.996 254.076 149.428 254.551 167.84 255.761C175.513 256.407 183.115 257.547 190.642 259.182C192.857 259.603 194.947 260.363 196.913 261.462C198.532 263.263 198.152 264.593 195.773 265.452C183.831 268.68 171.67 270.58 159.289 271.153C135.125 272.583 110.992 272.202 86.891 270.013C79.5446 269.342 72.3242 268.011 65.2286 266.022C63.8599 265.569 62.6246 264.904 61.5232 264.027C61.1179 262.963 61.4029 262.108 62.3783 261.462C68.2277 259.075 74.3086 257.555 80.6203 256.901C91.3243 255.726 101.966 254.871 112.544 254.336Z" fill="#D9D9D9"/>
</svg>
