<svg width="300" height="300" viewBox="0 0 300 300" fill="none" xmlns="http://www.w3.org/2000/svg">
<path fill-rule="evenodd" clip-rule="evenodd" d="M132.973 37.0839C168.761 35.8036 197.502 49.1768 219.195 77.2036C233.98 99.2751 239.141 123.441 234.68 149.701C232.852 158.583 230.388 167.264 227.289 175.743C236.918 176.13 246.537 176.716 256.147 177.503C259.48 178.255 261.709 180.249 262.834 183.486C263.198 186.337 262.963 189.152 262.13 191.932C255.887 213.856 249.317 235.676 242.422 257.39C239.719 261.612 235.848 263.254 230.808 262.317C214.598 261.302 198.409 260.012 182.242 258.446C175.701 255.033 174.175 249.989 177.667 243.313C180.314 241.301 182.426 241.77 184.002 244.721C184.11 246.525 183.758 248.285 182.946 250C183.231 250.665 183.701 251.135 184.354 251.408C201.201 253.407 218.094 254.581 235.031 254.927C235.877 254.291 236.464 253.471 236.791 252.463C243.721 230.277 250.055 207.989 255.795 185.597C254.359 184.716 252.716 184.247 250.868 184.19C234.582 182.756 218.277 181.936 201.95 181.726C199.711 187.979 197.952 194.431 196.671 201.082C193.273 204.249 191.044 203.546 189.985 198.97C191.404 191.508 193.399 184.235 195.968 177.151C196.96 176.245 198.016 175.424 199.135 174.687C205.993 174.439 212.797 174.321 219.547 174.336C235.346 138.657 231.475 105.342 207.933 74.3882C184.562 50.0179 156.056 40.5159 122.415 45.8821C88.037 51.8796 63.754 70.7662 49.5657 102.542C42.4132 122.25 41.7093 142.193 47.4542 162.37C49.4271 168.523 51.5386 174.623 53.7889 180.67C58.283 193.825 56.1714 205.791 47.4542 216.567C46.6286 219.245 47.4493 221.24 49.9177 222.55C61.3215 226.109 72.5832 225.64 83.7027 221.142C88.8852 218.374 94.1641 215.91 99.5394 213.751C117.911 220.093 136.563 221.031 155.496 216.567C160.774 218.216 161.008 220.445 156.2 223.253C136.828 228.109 117.707 227.288 98.8356 220.79C84.1468 230.907 68.075 234.075 50.6215 230.292C43.2902 228.14 39.8884 223.331 40.4156 215.863C42.9967 210.936 45.577 206.009 48.158 201.082C49.5657 195.921 49.5657 190.759 48.158 185.597C44.2622 175.226 40.9773 164.668 38.3041 153.924C31.9645 107.834 48.7394 72.9932 88.6297 49.4014C102.678 42.329 117.459 38.2227 132.973 37.0839Z" fill="#D9D9D9"/>
<path fill-rule="evenodd" clip-rule="evenodd" d="M179.427 80.019C189.566 80.3442 196.488 85.2711 200.191 94.7999C204.966 105.766 205.904 117.028 203.006 128.585C197.872 137.883 190.717 139.877 181.539 134.568C169.845 122.644 165.739 108.45 169.221 91.9845C170.787 86.3206 174.189 82.3326 179.427 80.019Z" fill="#D9D9D9"/>
<path fill-rule="evenodd" clip-rule="evenodd" d="M123.119 81.4266C134.622 80.5489 142.95 85.2408 148.105 95.5037C155.074 108.951 155.074 122.324 148.105 135.623C140.071 144.011 131.273 144.832 121.711 138.087C110.705 126.417 107.069 112.692 110.801 96.9114C112.471 89.7356 116.578 84.5743 123.119 81.4266Z" fill="#D9D9D9"/>
<path fill-rule="evenodd" clip-rule="evenodd" d="M189.281 99.023C194.125 98.3509 196.823 100.462 197.375 105.358C197.845 107.939 197.845 110.519 197.375 113.1C195.877 116.501 193.413 117.439 189.985 115.916C186.735 112.028 185.679 107.571 186.817 102.542C187.519 101.259 188.34 100.086 189.281 99.023Z" fill="#FAFAFA"/>
<path fill-rule="evenodd" clip-rule="evenodd" d="M134.38 101.135C139.378 100.837 142.546 103.184 143.882 108.173C144.464 111.755 144.229 115.274 143.178 118.731C139.677 122.556 136.393 122.321 133.324 118.027C129.685 112.038 130.037 106.407 134.38 101.135Z" fill="#F9FAFA"/>
<path fill-rule="evenodd" clip-rule="evenodd" d="M144.938 164.482C148.86 164.123 152.614 164.709 156.2 166.241C170.411 181.863 184.137 197.934 197.375 214.455C200.234 221.622 202.815 228.895 205.118 236.275C206.642 241.78 204.648 244.243 199.135 243.665C192.253 241.28 185.449 238.699 178.723 235.923C176.433 234.274 175.142 232.045 174.852 229.236C162.857 215.6 151.126 201.758 139.659 187.709C133.363 178.1 135.122 170.357 144.938 164.482Z" fill="#D9D9D9"/>
<path fill-rule="evenodd" clip-rule="evenodd" d="M147.05 171.52C152.306 171.84 156.06 174.421 158.311 179.262C155.366 182.088 152.198 184.669 148.809 187.005C143.922 183.583 142.515 179.125 144.586 173.632C145.392 172.832 146.213 172.128 147.05 171.52Z" fill="#F9F9F9"/>
<path fill-rule="evenodd" clip-rule="evenodd" d="M163.238 184.893C172.015 195.2 180.695 205.641 189.281 216.215C186.066 218.937 182.664 221.4 179.075 223.605C170.427 213.465 161.864 203.259 153.384 192.988C156.597 190.119 159.882 187.421 163.238 184.893Z" fill="#FBFBFB"/>
<path fill-rule="evenodd" clip-rule="evenodd" d="M210.397 200.378C220.018 200.877 229.638 201.464 239.255 202.138C242.205 203.714 242.675 205.825 240.662 208.473C230.768 208.938 220.914 208.47 211.1 207.065C208.538 205.166 208.304 202.937 210.397 200.378Z" fill="#D9D9D9"/>
<path fill-rule="evenodd" clip-rule="evenodd" d="M213.916 218.678C219.568 218.663 225.198 219.015 230.808 219.734C232.835 220.907 233.421 222.666 232.568 225.013C231.285 226.1 229.76 226.57 227.993 226.421C223.54 226.002 219.083 225.65 214.62 225.365C212.057 223.466 211.823 221.237 213.916 218.678Z" fill="#D9D9D9"/>
<path fill-rule="evenodd" clip-rule="evenodd" d="M192.096 222.902C192.798 222.88 193.268 223.232 193.504 223.957C195.013 227.769 196.069 231.641 196.671 235.571C192.108 233.58 187.533 231.585 182.946 229.588C186.294 227.688 189.344 225.459 192.096 222.902Z" fill="#F6F6F6"/>
<path fill-rule="evenodd" clip-rule="evenodd" d="M110.449 242.609C127.222 241.988 143.88 243.044 160.423 245.777C167.061 248.846 166.826 251.662 159.719 254.223C147.365 257.303 134.812 258.594 122.063 258.094C107.406 258.538 92.9775 257.012 78.7758 253.519C77.663 253.022 76.6072 252.435 75.6085 251.76C75.139 251.056 75.139 250.352 75.6085 249.648C78.4647 247.677 81.632 246.386 85.1105 245.777C93.6335 244.477 102.08 243.421 110.449 242.609Z" fill="#D9D9D9"/>
</svg>
