<svg width="300" height="300" viewBox="0 0 300 300" fill="none" xmlns="http://www.w3.org/2000/svg">
<path fill-rule="evenodd" clip-rule="evenodd" d="M164.311 21.0286C170.858 20.6663 173.612 23.751 172.574 30.2828C171.747 32.0482 170.536 33.4805 168.938 34.5795C170.704 49.691 172.797 64.7841 175.218 79.8593C220.496 95.7053 242.75 127.654 241.981 175.707C237.369 214.467 216.547 239.916 179.514 252.055C158.89 256.982 138.288 256.872 117.709 251.725C111.446 254.466 104.947 256.559 98.2089 258.004C89.9944 259.523 81.8421 259.303 73.7512 257.343C65.7264 254.832 62.0908 249.433 62.8443 241.148C64.4268 237.323 66.1891 233.577 68.1325 229.911C69.9959 225.583 70.216 221.175 68.7935 216.69C64.1122 204.631 60.3668 192.292 57.5562 179.673C54.4937 149.415 64.0785 123.966 86.3106 103.326C90.51 100.004 94.6963 96.6988 98.8699 93.4102C93.7345 81.0505 88.8872 68.6015 84.3275 56.0626C79.073 54.3096 77.4205 50.7837 79.3698 45.4863C82.8951 41.9611 86.4209 41.9611 89.9462 45.4863C90.5807 47.1256 91.1314 48.7782 91.5987 50.4439C98.5976 53.1806 105.648 55.7143 112.751 58.0457C114.536 51.6992 116.519 45.4195 118.701 39.2066C115.719 34.8539 116.16 30.8878 120.023 27.3083C124.14 25.6754 127.115 26.8872 128.946 30.9439C129.166 32.9269 129.387 34.91 129.607 36.893C135.336 41.7403 141.065 46.5882 146.794 51.4355C151.641 45.2662 156.489 39.0964 161.336 32.9269C160.473 30.4073 160.253 27.7632 160.675 24.9947C161.574 23.3272 162.786 22.0052 164.311 21.0286Z" fill="#D9D9D9"/>
<path fill-rule="evenodd" clip-rule="evenodd" d="M199.345 39.5371C203.79 39.9139 205.002 42.1171 202.981 46.1473C198.885 50.9258 195.029 55.8835 191.413 61.0203C186.625 61.2939 185.193 59.2011 187.116 54.7406C190.895 49.3592 194.971 44.2912 199.345 39.5371Z" fill="#D9D9D9"/>
<path fill-rule="evenodd" clip-rule="evenodd" d="M162.328 40.8592C162.835 41.3635 163.166 42.0245 163.319 42.8422C164.565 54.024 165.998 65.151 167.616 76.2237C151.402 78.6688 135.317 81.7538 119.362 85.478C114.732 86.8734 110.215 88.526 105.811 90.4357C101.219 79.9572 97.0329 69.3809 93.2512 58.7067C99.3531 61.1088 105.413 63.6425 111.429 66.3084C113.805 67.7937 115.898 67.4632 117.709 65.3169C119.916 57.7039 122.45 50.2119 125.311 42.8422C131.26 48.02 137.209 53.1984 143.158 58.3762C144.609 59.2838 146.152 59.5039 147.785 59.0372C153.339 53.5527 158.187 47.4932 162.328 40.8592Z" fill="#FCFCFC"/>
<path fill-rule="evenodd" clip-rule="evenodd" d="M212.565 60.6898C217.509 61.516 218.39 63.8296 215.209 67.6305C210.802 69.6135 206.396 71.5966 201.989 73.5796C199.063 74.4072 197.301 73.306 196.701 70.2745C196.967 69.3009 197.408 68.4197 198.023 67.6305C203.011 65.4656 207.858 63.1521 212.565 60.6898Z" fill="#D9D9D9"/>
<path fill-rule="evenodd" clip-rule="evenodd" d="M155.718 85.1475C183.968 86.6474 206.113 98.9866 222.15 122.165C237.419 147.185 239.843 173.406 229.421 200.826C215.603 229.377 192.798 245.351 161.006 248.75C146.163 250.225 131.62 248.793 117.379 244.453C109.596 248.121 101.443 250.656 92.9208 252.055C86.8777 252.746 80.9286 252.306 75.0733 250.733C71.8799 249.527 69.8968 247.323 69.1241 244.123C70.8837 239.828 72.7564 235.531 74.7427 231.233C76.1758 227.145 76.6167 222.959 76.0648 218.674C73.1292 208.401 69.8241 198.266 66.1495 188.267C58.5273 151.194 70.3159 121.999 101.514 100.681C111.566 94.7594 122.363 90.7933 133.904 88.7831C141.269 87.5556 148.54 86.344 155.718 85.1475Z" fill="#FEFEFE"/>
<path fill-rule="evenodd" clip-rule="evenodd" d="M189.43 118.199C194.589 117.459 199.216 118.671 203.311 121.834C213.796 132.796 217.431 145.686 214.218 160.504C209.929 170.747 202.988 173.061 193.396 167.444C182.119 157.19 177.822 144.521 180.506 129.436C181.617 124.09 184.592 120.344 189.43 118.199Z" fill="#D9D9D9"/>
<path fill-rule="evenodd" clip-rule="evenodd" d="M137.87 118.859C145.662 118.844 151.941 121.929 156.709 128.114C166.062 141.033 167.384 154.694 160.675 169.097C153.485 177.315 145.443 178.307 136.548 172.072C125.03 160.707 121.394 147.156 125.641 131.419C127.961 125.404 132.037 121.217 137.87 118.859Z" fill="#D9D9D9"/>
<path fill-rule="evenodd" clip-rule="evenodd" d="M200.006 132.741C204.543 133.42 207.297 136.064 208.269 140.673C208.71 142.656 208.71 144.639 208.269 146.622C205.092 151.86 201.787 151.86 198.353 146.622C196.868 143.227 196.427 139.702 197.031 136.046C197.709 134.6 198.7 133.498 200.006 132.741Z" fill="#FBFBFB"/>
<path fill-rule="evenodd" clip-rule="evenodd" d="M146.463 135.385C151.676 135.407 154.871 138.052 156.048 143.317C156.489 145.52 156.489 147.724 156.048 149.927C154.427 153.442 151.894 154.434 148.446 152.902C143.254 147.487 142.593 141.648 146.463 135.385Z" fill="#FBFBFB"/>
<path fill-rule="evenodd" clip-rule="evenodd" d="M124.65 264.945C143.608 264.766 162.558 265.096 181.497 265.936C189.764 266.267 197.917 267.369 205.955 269.242C208.665 269.969 209.106 271.291 207.277 273.208C199.285 275.451 191.132 276.773 182.82 277.174C160.127 278.456 137.431 278.456 114.734 277.174C108.017 276.697 101.407 275.595 94.9038 273.869C92.8256 273.261 92.1646 272.05 92.9208 270.233C95.3355 268.746 97.9796 267.865 100.853 267.589C108.856 266.438 116.788 265.556 124.65 264.945Z" fill="#D9D9D9"/>
</svg>
